<mxfile host="app.diagrams.net" modified="2023-01-27T03:35:47.699Z" agent="5.0 (Windows NT 10.0; Win64; x64) AppleWebKit/537.36 (KHTML, like Gecko) Chrome/109.0.0.0 Safari/537.36" etag="tXEmp2os2P66tVmELQqL" version="20.8.13" type="github">
  <diagram name="Page-1" id="7wqrCfqlxlDrGfvTc5EU">
    <mxGraphModel dx="3420" dy="1171" grid="1" gridSize="10" guides="1" tooltips="1" connect="1" arrows="1" fold="1" page="1" pageScale="1" pageWidth="1200" pageHeight="800" math="0" shadow="0">
      <root>
        <mxCell id="0" />
        <mxCell id="1" parent="0" />
        <mxCell id="Uh1ZONCfr7ZvRlcl-KeX-1" value="" style="strokeWidth=1;shadow=0;dashed=0;align=center;html=1;shape=mxgraph.mockup.containers.browserWindow;rSize=0;strokeColor=#666666;strokeColor2=#008cff;strokeColor3=#c4c4c4;mainText=,;recursiveResize=0;" parent="1" vertex="1">
          <mxGeometry x="-1166.25" y="140" width="1090" height="640" as="geometry" />
        </mxCell>
        <mxCell id="Uh1ZONCfr7ZvRlcl-KeX-2" value="Spotify Clone" style="strokeWidth=1;shadow=0;dashed=0;align=center;html=1;shape=mxgraph.mockup.containers.anchor;fontSize=17;fontColor=#666666;align=left;" parent="Uh1ZONCfr7ZvRlcl-KeX-1" vertex="1">
          <mxGeometry x="60" y="12" width="110" height="26" as="geometry" />
        </mxCell>
        <mxCell id="Uh1ZONCfr7ZvRlcl-KeX-3" value="https://localhost:4000/home" style="strokeWidth=1;shadow=0;dashed=0;align=center;html=1;shape=mxgraph.mockup.containers.anchor;rSize=0;fontSize=17;fontColor=#666666;align=left;" parent="Uh1ZONCfr7ZvRlcl-KeX-1" vertex="1">
          <mxGeometry x="130" y="60" width="250" height="26" as="geometry" />
        </mxCell>
        <mxCell id="Uh1ZONCfr7ZvRlcl-KeX-4" value="" style="rounded=0;whiteSpace=wrap;html=1;rotation=90;" parent="Uh1ZONCfr7ZvRlcl-KeX-1" vertex="1">
          <mxGeometry x="-173.75" y="283.75" width="527.5" height="180" as="geometry" />
        </mxCell>
        <mxCell id="Uh1ZONCfr7ZvRlcl-KeX-5" value="&lt;font style=&quot;font-size: 21px;&quot;&gt;LINKS&lt;/font&gt;" style="text;html=1;strokeColor=none;fillColor=none;align=center;verticalAlign=middle;whiteSpace=wrap;rounded=0;" parent="Uh1ZONCfr7ZvRlcl-KeX-1" vertex="1">
          <mxGeometry x="20" y="130" width="120" height="110" as="geometry" />
        </mxCell>
        <mxCell id="Uh1ZONCfr7ZvRlcl-KeX-6" value="&lt;font style=&quot;font-size: 21px;&quot;&gt;Local&lt;br&gt;Playlists&lt;br&gt;&lt;/font&gt;" style="text;html=1;strokeColor=none;fillColor=none;align=center;verticalAlign=middle;whiteSpace=wrap;rounded=0;" parent="Uh1ZONCfr7ZvRlcl-KeX-1" vertex="1">
          <mxGeometry x="20" y="270" width="120" height="110" as="geometry" />
        </mxCell>
        <mxCell id="Uh1ZONCfr7ZvRlcl-KeX-7" value="" style="rounded=1;whiteSpace=wrap;html=1;fontSize=21;" parent="Uh1ZONCfr7ZvRlcl-KeX-1" vertex="1">
          <mxGeometry x="200" y="130" width="580" height="60" as="geometry" />
        </mxCell>
        <mxCell id="Uh1ZONCfr7ZvRlcl-KeX-9" value="Main Search Bar" style="text;html=1;strokeColor=none;fillColor=none;align=center;verticalAlign=middle;whiteSpace=wrap;rounded=0;fontSize=21;" parent="Uh1ZONCfr7ZvRlcl-KeX-1" vertex="1">
          <mxGeometry x="210" y="145" width="530" height="30" as="geometry" />
        </mxCell>
        <mxCell id="Uh1ZONCfr7ZvRlcl-KeX-10" value="" style="rounded=0;whiteSpace=wrap;html=1;fontSize=21;" parent="Uh1ZONCfr7ZvRlcl-KeX-1" vertex="1">
          <mxGeometry x="950" y="130" width="120" height="90" as="geometry" />
        </mxCell>
        <mxCell id="Uh1ZONCfr7ZvRlcl-KeX-8" value="Logged in user menu" style="text;html=1;strokeColor=none;fillColor=none;align=center;verticalAlign=middle;whiteSpace=wrap;rounded=0;fontSize=21;" parent="Uh1ZONCfr7ZvRlcl-KeX-1" vertex="1">
          <mxGeometry x="980" y="160" width="60" height="30" as="geometry" />
        </mxCell>
        <mxCell id="Uh1ZONCfr7ZvRlcl-KeX-12" value="" style="whiteSpace=wrap;html=1;aspect=fixed;fontSize=21;" parent="Uh1ZONCfr7ZvRlcl-KeX-1" vertex="1">
          <mxGeometry x="230" y="250" width="50" height="50" as="geometry" />
        </mxCell>
        <mxCell id="Uh1ZONCfr7ZvRlcl-KeX-13" value="" style="whiteSpace=wrap;html=1;aspect=fixed;fontSize=21;" parent="Uh1ZONCfr7ZvRlcl-KeX-1" vertex="1">
          <mxGeometry x="310" y="250" width="50" height="50" as="geometry" />
        </mxCell>
        <mxCell id="Uh1ZONCfr7ZvRlcl-KeX-14" value="" style="whiteSpace=wrap;html=1;aspect=fixed;fontSize=21;" parent="Uh1ZONCfr7ZvRlcl-KeX-1" vertex="1">
          <mxGeometry x="390" y="250" width="50" height="50" as="geometry" />
        </mxCell>
        <mxCell id="Uh1ZONCfr7ZvRlcl-KeX-15" value="" style="whiteSpace=wrap;html=1;aspect=fixed;fontSize=21;" parent="Uh1ZONCfr7ZvRlcl-KeX-1" vertex="1">
          <mxGeometry x="470" y="250" width="50" height="50" as="geometry" />
        </mxCell>
        <mxCell id="Uh1ZONCfr7ZvRlcl-KeX-16" value="" style="whiteSpace=wrap;html=1;aspect=fixed;fontSize=21;" parent="Uh1ZONCfr7ZvRlcl-KeX-1" vertex="1">
          <mxGeometry x="560" y="250" width="50" height="50" as="geometry" />
        </mxCell>
        <mxCell id="Uh1ZONCfr7ZvRlcl-KeX-17" value="" style="whiteSpace=wrap;html=1;aspect=fixed;fontSize=21;" parent="Uh1ZONCfr7ZvRlcl-KeX-1" vertex="1">
          <mxGeometry x="650" y="250" width="50" height="50" as="geometry" />
        </mxCell>
        <mxCell id="Uh1ZONCfr7ZvRlcl-KeX-18" value="" style="whiteSpace=wrap;html=1;aspect=fixed;fontSize=21;" parent="Uh1ZONCfr7ZvRlcl-KeX-1" vertex="1">
          <mxGeometry x="650" y="250" width="50" height="50" as="geometry" />
        </mxCell>
        <mxCell id="Uh1ZONCfr7ZvRlcl-KeX-19" value="" style="whiteSpace=wrap;html=1;aspect=fixed;fontSize=21;" parent="Uh1ZONCfr7ZvRlcl-KeX-1" vertex="1">
          <mxGeometry x="230" y="250" width="50" height="50" as="geometry" />
        </mxCell>
        <mxCell id="Uh1ZONCfr7ZvRlcl-KeX-20" value="" style="whiteSpace=wrap;html=1;aspect=fixed;fontSize=21;" parent="Uh1ZONCfr7ZvRlcl-KeX-1" vertex="1">
          <mxGeometry x="310" y="250" width="50" height="50" as="geometry" />
        </mxCell>
        <mxCell id="Uh1ZONCfr7ZvRlcl-KeX-21" value="" style="whiteSpace=wrap;html=1;aspect=fixed;fontSize=21;" parent="Uh1ZONCfr7ZvRlcl-KeX-1" vertex="1">
          <mxGeometry x="650" y="250" width="50" height="50" as="geometry" />
        </mxCell>
        <mxCell id="Uh1ZONCfr7ZvRlcl-KeX-22" value="" style="whiteSpace=wrap;html=1;aspect=fixed;fontSize=21;" parent="Uh1ZONCfr7ZvRlcl-KeX-1" vertex="1">
          <mxGeometry x="230" y="250" width="50" height="50" as="geometry" />
        </mxCell>
        <mxCell id="Uh1ZONCfr7ZvRlcl-KeX-23" value="" style="whiteSpace=wrap;html=1;aspect=fixed;fontSize=21;" parent="Uh1ZONCfr7ZvRlcl-KeX-1" vertex="1">
          <mxGeometry x="310" y="250" width="50" height="50" as="geometry" />
        </mxCell>
        <mxCell id="Uh1ZONCfr7ZvRlcl-KeX-24" value="" style="whiteSpace=wrap;html=1;aspect=fixed;fontSize=21;" parent="Uh1ZONCfr7ZvRlcl-KeX-1" vertex="1">
          <mxGeometry x="650" y="250" width="50" height="50" as="geometry" />
        </mxCell>
        <mxCell id="Uh1ZONCfr7ZvRlcl-KeX-25" value="" style="whiteSpace=wrap;html=1;aspect=fixed;fontSize=21;" parent="Uh1ZONCfr7ZvRlcl-KeX-1" vertex="1">
          <mxGeometry x="230" y="250" width="50" height="50" as="geometry" />
        </mxCell>
        <mxCell id="Uh1ZONCfr7ZvRlcl-KeX-26" value="" style="whiteSpace=wrap;html=1;aspect=fixed;fontSize=21;" parent="Uh1ZONCfr7ZvRlcl-KeX-1" vertex="1">
          <mxGeometry x="310" y="250" width="50" height="50" as="geometry" />
        </mxCell>
        <mxCell id="Uh1ZONCfr7ZvRlcl-KeX-27" value="" style="whiteSpace=wrap;html=1;aspect=fixed;fontSize=21;" parent="Uh1ZONCfr7ZvRlcl-KeX-1" vertex="1">
          <mxGeometry x="650" y="250" width="50" height="50" as="geometry" />
        </mxCell>
        <mxCell id="Uh1ZONCfr7ZvRlcl-KeX-28" value="" style="whiteSpace=wrap;html=1;aspect=fixed;fontSize=21;" parent="Uh1ZONCfr7ZvRlcl-KeX-1" vertex="1">
          <mxGeometry x="230" y="250" width="50" height="50" as="geometry" />
        </mxCell>
        <mxCell id="Uh1ZONCfr7ZvRlcl-KeX-29" value="" style="whiteSpace=wrap;html=1;aspect=fixed;fontSize=21;" parent="Uh1ZONCfr7ZvRlcl-KeX-1" vertex="1">
          <mxGeometry x="310" y="250" width="50" height="50" as="geometry" />
        </mxCell>
        <mxCell id="Uh1ZONCfr7ZvRlcl-KeX-30" value="" style="whiteSpace=wrap;html=1;aspect=fixed;fontSize=21;" parent="Uh1ZONCfr7ZvRlcl-KeX-1" vertex="1">
          <mxGeometry x="390" y="350" width="50" height="50" as="geometry" />
        </mxCell>
        <mxCell id="Uh1ZONCfr7ZvRlcl-KeX-31" value="" style="whiteSpace=wrap;html=1;aspect=fixed;fontSize=21;" parent="Uh1ZONCfr7ZvRlcl-KeX-1" vertex="1">
          <mxGeometry x="470" y="350" width="50" height="50" as="geometry" />
        </mxCell>
        <mxCell id="Uh1ZONCfr7ZvRlcl-KeX-32" value="" style="whiteSpace=wrap;html=1;aspect=fixed;fontSize=21;" parent="Uh1ZONCfr7ZvRlcl-KeX-1" vertex="1">
          <mxGeometry x="560" y="350" width="50" height="50" as="geometry" />
        </mxCell>
        <mxCell id="Uh1ZONCfr7ZvRlcl-KeX-33" value="" style="whiteSpace=wrap;html=1;aspect=fixed;fontSize=21;" parent="Uh1ZONCfr7ZvRlcl-KeX-1" vertex="1">
          <mxGeometry x="650" y="350" width="50" height="50" as="geometry" />
        </mxCell>
        <mxCell id="Uh1ZONCfr7ZvRlcl-KeX-34" value="" style="whiteSpace=wrap;html=1;aspect=fixed;fontSize=21;" parent="Uh1ZONCfr7ZvRlcl-KeX-1" vertex="1">
          <mxGeometry x="230" y="350" width="50" height="50" as="geometry" />
        </mxCell>
        <mxCell id="Uh1ZONCfr7ZvRlcl-KeX-35" value="" style="whiteSpace=wrap;html=1;aspect=fixed;fontSize=21;" parent="Uh1ZONCfr7ZvRlcl-KeX-1" vertex="1">
          <mxGeometry x="310" y="350" width="50" height="50" as="geometry" />
        </mxCell>
        <mxCell id="Uh1ZONCfr7ZvRlcl-KeX-36" value="" style="whiteSpace=wrap;html=1;aspect=fixed;fontSize=21;" parent="Uh1ZONCfr7ZvRlcl-KeX-1" vertex="1">
          <mxGeometry x="390" y="445" width="50" height="50" as="geometry" />
        </mxCell>
        <mxCell id="Uh1ZONCfr7ZvRlcl-KeX-37" value="" style="whiteSpace=wrap;html=1;aspect=fixed;fontSize=21;" parent="Uh1ZONCfr7ZvRlcl-KeX-1" vertex="1">
          <mxGeometry x="470" y="445" width="50" height="50" as="geometry" />
        </mxCell>
        <mxCell id="Uh1ZONCfr7ZvRlcl-KeX-38" value="" style="whiteSpace=wrap;html=1;aspect=fixed;fontSize=21;" parent="Uh1ZONCfr7ZvRlcl-KeX-1" vertex="1">
          <mxGeometry x="560" y="445" width="50" height="50" as="geometry" />
        </mxCell>
        <mxCell id="Uh1ZONCfr7ZvRlcl-KeX-39" value="" style="whiteSpace=wrap;html=1;aspect=fixed;fontSize=21;" parent="Uh1ZONCfr7ZvRlcl-KeX-1" vertex="1">
          <mxGeometry x="650" y="445" width="50" height="50" as="geometry" />
        </mxCell>
        <mxCell id="Uh1ZONCfr7ZvRlcl-KeX-40" value="" style="whiteSpace=wrap;html=1;aspect=fixed;fontSize=21;" parent="Uh1ZONCfr7ZvRlcl-KeX-1" vertex="1">
          <mxGeometry x="230" y="445" width="50" height="50" as="geometry" />
        </mxCell>
        <mxCell id="Uh1ZONCfr7ZvRlcl-KeX-41" value="" style="whiteSpace=wrap;html=1;aspect=fixed;fontSize=21;" parent="Uh1ZONCfr7ZvRlcl-KeX-1" vertex="1">
          <mxGeometry x="310" y="445" width="50" height="50" as="geometry" />
        </mxCell>
        <mxCell id="Uh1ZONCfr7ZvRlcl-KeX-42" value="" style="whiteSpace=wrap;html=1;aspect=fixed;fontSize=21;" parent="Uh1ZONCfr7ZvRlcl-KeX-1" vertex="1">
          <mxGeometry x="390" y="540" width="50" height="50" as="geometry" />
        </mxCell>
        <mxCell id="Uh1ZONCfr7ZvRlcl-KeX-43" value="" style="whiteSpace=wrap;html=1;aspect=fixed;fontSize=21;" parent="Uh1ZONCfr7ZvRlcl-KeX-1" vertex="1">
          <mxGeometry x="470" y="540" width="50" height="50" as="geometry" />
        </mxCell>
        <mxCell id="Uh1ZONCfr7ZvRlcl-KeX-44" value="" style="whiteSpace=wrap;html=1;aspect=fixed;fontSize=21;" parent="Uh1ZONCfr7ZvRlcl-KeX-1" vertex="1">
          <mxGeometry x="560" y="540" width="50" height="50" as="geometry" />
        </mxCell>
        <mxCell id="Uh1ZONCfr7ZvRlcl-KeX-45" value="" style="whiteSpace=wrap;html=1;aspect=fixed;fontSize=21;" parent="Uh1ZONCfr7ZvRlcl-KeX-1" vertex="1">
          <mxGeometry x="650" y="540" width="50" height="50" as="geometry" />
        </mxCell>
        <mxCell id="Uh1ZONCfr7ZvRlcl-KeX-46" value="" style="whiteSpace=wrap;html=1;aspect=fixed;fontSize=21;" parent="Uh1ZONCfr7ZvRlcl-KeX-1" vertex="1">
          <mxGeometry x="230" y="540" width="50" height="50" as="geometry" />
        </mxCell>
        <mxCell id="Uh1ZONCfr7ZvRlcl-KeX-47" value="" style="whiteSpace=wrap;html=1;aspect=fixed;fontSize=21;" parent="Uh1ZONCfr7ZvRlcl-KeX-1" vertex="1">
          <mxGeometry x="310" y="540" width="50" height="50" as="geometry" />
        </mxCell>
        <mxCell id="Uh1ZONCfr7ZvRlcl-KeX-48" value="" style="whiteSpace=wrap;html=1;aspect=fixed;fontSize=21;" parent="Uh1ZONCfr7ZvRlcl-KeX-1" vertex="1">
          <mxGeometry x="740" y="250" width="50" height="50" as="geometry" />
        </mxCell>
        <mxCell id="Uh1ZONCfr7ZvRlcl-KeX-49" value="" style="whiteSpace=wrap;html=1;aspect=fixed;fontSize=21;" parent="Uh1ZONCfr7ZvRlcl-KeX-1" vertex="1">
          <mxGeometry x="820" y="250" width="50" height="50" as="geometry" />
        </mxCell>
        <mxCell id="Uh1ZONCfr7ZvRlcl-KeX-50" value="" style="whiteSpace=wrap;html=1;aspect=fixed;fontSize=21;" parent="Uh1ZONCfr7ZvRlcl-KeX-1" vertex="1">
          <mxGeometry x="910" y="250" width="50" height="50" as="geometry" />
        </mxCell>
        <mxCell id="Uh1ZONCfr7ZvRlcl-KeX-51" value="" style="whiteSpace=wrap;html=1;aspect=fixed;fontSize=21;" parent="Uh1ZONCfr7ZvRlcl-KeX-1" vertex="1">
          <mxGeometry x="1000" y="250" width="50" height="50" as="geometry" />
        </mxCell>
        <mxCell id="Uh1ZONCfr7ZvRlcl-KeX-52" value="" style="whiteSpace=wrap;html=1;aspect=fixed;fontSize=21;" parent="Uh1ZONCfr7ZvRlcl-KeX-1" vertex="1">
          <mxGeometry x="740" y="350" width="50" height="50" as="geometry" />
        </mxCell>
        <mxCell id="Uh1ZONCfr7ZvRlcl-KeX-53" value="" style="whiteSpace=wrap;html=1;aspect=fixed;fontSize=21;" parent="Uh1ZONCfr7ZvRlcl-KeX-1" vertex="1">
          <mxGeometry x="820" y="350" width="50" height="50" as="geometry" />
        </mxCell>
        <mxCell id="Uh1ZONCfr7ZvRlcl-KeX-54" value="" style="whiteSpace=wrap;html=1;aspect=fixed;fontSize=21;" parent="Uh1ZONCfr7ZvRlcl-KeX-1" vertex="1">
          <mxGeometry x="910" y="350" width="50" height="50" as="geometry" />
        </mxCell>
        <mxCell id="Uh1ZONCfr7ZvRlcl-KeX-55" value="" style="whiteSpace=wrap;html=1;aspect=fixed;fontSize=21;" parent="Uh1ZONCfr7ZvRlcl-KeX-1" vertex="1">
          <mxGeometry x="1000" y="350" width="50" height="50" as="geometry" />
        </mxCell>
        <mxCell id="Uh1ZONCfr7ZvRlcl-KeX-56" value="" style="whiteSpace=wrap;html=1;aspect=fixed;fontSize=21;" parent="Uh1ZONCfr7ZvRlcl-KeX-1" vertex="1">
          <mxGeometry x="740" y="350" width="50" height="50" as="geometry" />
        </mxCell>
        <mxCell id="Uh1ZONCfr7ZvRlcl-KeX-57" value="" style="whiteSpace=wrap;html=1;aspect=fixed;fontSize=21;" parent="Uh1ZONCfr7ZvRlcl-KeX-1" vertex="1">
          <mxGeometry x="820" y="350" width="50" height="50" as="geometry" />
        </mxCell>
        <mxCell id="Uh1ZONCfr7ZvRlcl-KeX-58" value="" style="whiteSpace=wrap;html=1;aspect=fixed;fontSize=21;" parent="Uh1ZONCfr7ZvRlcl-KeX-1" vertex="1">
          <mxGeometry x="910" y="350" width="50" height="50" as="geometry" />
        </mxCell>
        <mxCell id="Uh1ZONCfr7ZvRlcl-KeX-59" value="" style="whiteSpace=wrap;html=1;aspect=fixed;fontSize=21;" parent="Uh1ZONCfr7ZvRlcl-KeX-1" vertex="1">
          <mxGeometry x="1000" y="350" width="50" height="50" as="geometry" />
        </mxCell>
        <mxCell id="Uh1ZONCfr7ZvRlcl-KeX-60" value="" style="whiteSpace=wrap;html=1;aspect=fixed;fontSize=21;" parent="Uh1ZONCfr7ZvRlcl-KeX-1" vertex="1">
          <mxGeometry x="910" y="250" width="50" height="50" as="geometry" />
        </mxCell>
        <mxCell id="Uh1ZONCfr7ZvRlcl-KeX-61" value="" style="whiteSpace=wrap;html=1;aspect=fixed;fontSize=21;" parent="Uh1ZONCfr7ZvRlcl-KeX-1" vertex="1">
          <mxGeometry x="820" y="250" width="50" height="50" as="geometry" />
        </mxCell>
        <mxCell id="Uh1ZONCfr7ZvRlcl-KeX-62" value="" style="whiteSpace=wrap;html=1;aspect=fixed;fontSize=21;" parent="Uh1ZONCfr7ZvRlcl-KeX-1" vertex="1">
          <mxGeometry x="740" y="445" width="50" height="50" as="geometry" />
        </mxCell>
        <mxCell id="Uh1ZONCfr7ZvRlcl-KeX-63" value="" style="whiteSpace=wrap;html=1;aspect=fixed;fontSize=21;" parent="Uh1ZONCfr7ZvRlcl-KeX-1" vertex="1">
          <mxGeometry x="1000" y="445" width="50" height="50" as="geometry" />
        </mxCell>
        <mxCell id="Uh1ZONCfr7ZvRlcl-KeX-64" value="" style="whiteSpace=wrap;html=1;aspect=fixed;fontSize=21;" parent="Uh1ZONCfr7ZvRlcl-KeX-1" vertex="1">
          <mxGeometry x="740" y="545" width="50" height="50" as="geometry" />
        </mxCell>
        <mxCell id="Uh1ZONCfr7ZvRlcl-KeX-65" value="" style="whiteSpace=wrap;html=1;aspect=fixed;fontSize=21;" parent="Uh1ZONCfr7ZvRlcl-KeX-1" vertex="1">
          <mxGeometry x="820" y="545" width="50" height="50" as="geometry" />
        </mxCell>
        <mxCell id="Uh1ZONCfr7ZvRlcl-KeX-66" value="" style="whiteSpace=wrap;html=1;aspect=fixed;fontSize=21;" parent="Uh1ZONCfr7ZvRlcl-KeX-1" vertex="1">
          <mxGeometry x="910" y="545" width="50" height="50" as="geometry" />
        </mxCell>
        <mxCell id="Uh1ZONCfr7ZvRlcl-KeX-67" value="" style="whiteSpace=wrap;html=1;aspect=fixed;fontSize=21;" parent="Uh1ZONCfr7ZvRlcl-KeX-1" vertex="1">
          <mxGeometry x="1000" y="545" width="50" height="50" as="geometry" />
        </mxCell>
        <mxCell id="Uh1ZONCfr7ZvRlcl-KeX-68" value="" style="whiteSpace=wrap;html=1;aspect=fixed;fontSize=21;" parent="Uh1ZONCfr7ZvRlcl-KeX-1" vertex="1">
          <mxGeometry x="910" y="445" width="50" height="50" as="geometry" />
        </mxCell>
        <mxCell id="Uh1ZONCfr7ZvRlcl-KeX-69" value="" style="whiteSpace=wrap;html=1;aspect=fixed;fontSize=21;" parent="Uh1ZONCfr7ZvRlcl-KeX-1" vertex="1">
          <mxGeometry x="820" y="445" width="50" height="50" as="geometry" />
        </mxCell>
        <mxCell id="Uh1ZONCfr7ZvRlcl-KeX-73" value="" style="rounded=0;whiteSpace=wrap;html=1;fontSize=21;" parent="Uh1ZONCfr7ZvRlcl-KeX-1" vertex="1">
          <mxGeometry x="480" y="210" width="260" height="30" as="geometry" />
        </mxCell>
        <mxCell id="Uh1ZONCfr7ZvRlcl-KeX-74" value="Playlist select" style="text;html=1;strokeColor=none;fillColor=none;align=center;verticalAlign=middle;whiteSpace=wrap;rounded=0;fontSize=21;" parent="Uh1ZONCfr7ZvRlcl-KeX-1" vertex="1">
          <mxGeometry x="496.25" y="210" width="193.75" height="30" as="geometry" />
        </mxCell>
        <mxCell id="Uh1ZONCfr7ZvRlcl-KeX-72" value="Each tile is a song offered from the recommended playlist fetched on side effect from RSpotify, onHover plays the song and onClick add the song to the selected playlist." style="text;html=1;strokeColor=none;fillColor=none;align=center;verticalAlign=middle;whiteSpace=wrap;rounded=0;fontSize=21;" parent="1" vertex="1">
          <mxGeometry x="-1060" y="20" width="860" height="140" as="geometry" />
        </mxCell>
      </root>
    </mxGraphModel>
  </diagram>
</mxfile>
